<?xml version="1.0" encoding="UTF-8" standalone="no"?>
<!-- Created with Inkscape (http://www.inkscape.org/) -->

<svg
   xmlns:dc="http://purl.org/dc/elements/1.1/"
   xmlns:cc="http://creativecommons.org/ns#"
   xmlns:rdf="http://www.w3.org/1999/02/22-rdf-syntax-ns#"
   xmlns:svg="http://www.w3.org/2000/svg"
   xmlns="http://www.w3.org/2000/svg"
   xmlns:sodipodi="http://sodipodi.sourceforge.net/DTD/sodipodi-0.dtd"
   xmlns:inkscape="http://www.inkscape.org/namespaces/inkscape"
   id="svg4396"
   height="109.43mm"
   width="483.35mm"
   version="1.1"
   viewBox="0 0 1712.6403 387.75055"
   inkscape:version="0.48.5 r10040"
   sodipodi:docname="logo-web.svg">
  <metadata
     id="metadata46">
    <rdf:RDF>
      <cc:Work
         rdf:about="">
        <dc:format>image/svg+xml</dc:format>
        <dc:type
           rdf:resource="http://purl.org/dc/dcmitype/StillImage" />
      </cc:Work>
    </rdf:RDF>
  </metadata>
  <defs
     id="defs44" />
  <sodipodi:namedview
     pagecolor="#49ffff"
     bordercolor="#666666"
     borderopacity="1"
     objecttolerance="10"
     gridtolerance="10"
     guidetolerance="10"
     inkscape:pageopacity="0.65098039"
     inkscape:pageshadow="2"
     inkscape:window-width="1366"
     inkscape:window-height="742"
     id="namedview42"
     showgrid="false"
     inkscape:showpageshadow="false"
     inkscape:zoom="0.16060686"
     inkscape:cx="640.28495"
     inkscape:cy="572.7855"
     inkscape:window-x="0"
     inkscape:window-y="2"
     inkscape:window-maximized="1"
     inkscape:current-layer="svg4396" />
  <g
     id="text4408"
     style="text-indent:0;text-transform:none;block-progression:tb;color:#000000;fill:#ffffff"
     transform="translate(359.2,-2041.57)" />
  <g
     id="text4412"
     style="text-indent:0;text-transform:none;block-progression:tb;color:#000000;fill:#ffffff"
     transform="matrix(-1,0,0,-1,359.2,-2041.57)" />
  <g
     id="g3080">
    <path
       id="rect4416"
       transform="matrix(1.0000166,0,0,1.0000166,-0.02280779,0)"
       d="M 0.03125 0 L 0.03125 375.78125 L 375.78125 375.78125 L 375.78125 0 L 0.03125 0 z M 32.25 86.5 L 74.5625 86.5 L 121.125 239.53125 L 167.6875 86.5 L 210.25 86.5 L 145.53125 285.21875 L 97 285.21875 L 32.25 86.5 z M 230.34375 90.53125 L 278.875 90.53125 L 343.59375 289.25 L 301.3125 289.25 L 254.75 136.25 L 208.1875 289.25 L 165.59375 289.25 L 230.34375 90.53125 z "
       style="color:#000000;fill:#ffffff" />
    <g
       style="fill:#ffffff"
       transform="translate(1953.5,167.23)"
       id="g10">
      <g
         id="text4424"
         style="text-indent:0;text-transform:none;block-progression:tb;color:#000000;fill:#ffffff">
        <path
           style="fill:#ffffff"
           id="path5018"
           d="m -1463.7,63.717 h 49.33 l 65.773,-201.94 h -43.272 l -47.311,155.49 -47.311,-155.49 h -42.984 l 65.773,201.94 z"
           inkscape:connector-curvature="0" />
        <path
           style="fill:#ffffff"
           id="path5020"
           d="m -1242.6,67.756 c 58.273,0 105.01,-46.157 105.01,-105.01 0,-59.138 -46.734,-105.01 -105.01,-105.01 -58.273,0 -104.72,45.868 -104.72,105.01 0,58.85 46.445,105.01 104.72,105.01 z m 0,-38.945 c -36.637,0 -65.196,-27.406 -65.196,-66.062 0,-38.945 28.56,-66.35 65.196,-66.35 36.637,0 65.196,27.406 65.196,66.35 0,38.656 -28.559,66.062 -65.196,66.062 z"
           inkscape:connector-curvature="0" />
        <path
           style="fill:#ffffff"
           id="path5022"
           d="M -1109.3,-138.22 V 63.72 h 39.81 v -201.94 h -39.81 z"
           inkscape:connector-curvature="0" />
        <path
           style="fill:#ffffff"
           id="path5024"
           d="m -992.34,25.638 v -163.86 h -39.81 v 201.94 h 114.81 V 25.639 h -75.005 z"
           inkscape:connector-curvature="0" />
        <path
           style="fill:#ffffff"
           id="path5026"
           d="m -769.75,63.717 h 43.272 l -68.658,-201.94 h -49.33 l -68.658,201.94 h 42.983 l 11.539,-36.348 h 77.313 l 11.539,36.348 z m -77.024,-73.562 26.829,-84.236 26.829,84.236 h -53.657 z"
           inkscape:connector-curvature="0" />
        <path
           style="fill:#ffffff"
           id="path5028"
           d="m -585.6,63.717 h 46.734 l -62.312,-76.736 c 22.213,-10.674 37.791,-33.175 37.791,-58.273 0,-36.925 -30.002,-66.927 -67.216,-66.927 h -36.637 -39.81 v 201.94 h 39.81 V -6.38 h 24.521 l 57.119,70.101 z m -81.64,-164.72 h 36.637 c 15.001,0 27.406,12.982 27.406,29.713 0,16.732 -12.405,30.002 -27.406,30.002 h -36.637 v -59.715 z"
           inkscape:connector-curvature="0" />
        <path
           style="fill:#ffffff"
           id="path5030"
           d="m -414.3,-138.22 h -48.753 -88.275 v 38.079 h 48.465 v 163.86 h 39.81 v -163.86 h 48.753 v -38.079 z"
           inkscape:connector-curvature="0" />
        <path
           style="fill:#ffffff"
           id="path5032"
           d="m -334.28,67.756 c 37.502,0 69.235,-20.482 69.235,-59.138 0,-42.695 -38.079,-53.369 -67.216,-63.754 -18.751,-6.9235 -32.598,-13.559 -32.598,-28.271 0,-11.828 9.5198,-20.194 25.963,-20.194 18.174,0 28.559,8.9429 28.559,26.54 h 39.522 c 0,-44.714 -32.887,-65.196 -68.081,-65.196 -33.464,0 -65.485,20.194 -65.485,58.85 0,42.695 35.483,54.234 64.331,64.619 19.328,6.635 35.483,12.982 35.483,27.406 0,11.539 -9.5198,20.194 -29.713,20.194 -22.501,0 -34.041,-8.9429 -34.041,-27.406 h -39.81 c 0,45.58 34.041,66.35 73.851,66.35 z"
           inkscape:connector-curvature="0" />
      </g>
      <g
         style="fill:#ffffff"
         id="text4428">
        <path
           style="fill:#ffffff"
           id="path5035"
           d="m -1464.9,220.52 c 20.081,0 37.758,-12.265 45.213,-30.423 h -14.67 c -5.2909,10.221 -16.714,16.955 -28.739,16.955 -18.037,0 -27.777,-12.867 -24.771,-30.182 3.0062,-17.316 17.075,-30.182 35.353,-30.182 12.386,0 21.043,6.7339 22.847,16.955 h 14.55 c -1.2025,-17.917 -16.835,-30.423 -35.954,-30.423 -25.733,0 -46.175,18.037 -50.504,42.448 -4.3289,24.41 11.303,44.853 36.676,44.853 z"
           inkscape:connector-curvature="0" />
        <path
           style="fill:#ffffff"
           id="path5037"
           d="m -1402.6,149.22 h 12.987 l 2.5252,-14.43 h -12.987 l -2.5252,14.43 z m -12.265,69.744 h 12.987 l 10.582,-60.124 h -12.987 l -10.582,60.124 z"
           inkscape:connector-curvature="0" />
        <path
           style="fill:#ffffff"
           id="path5039"
           d="m -1364.8,166.89 1.443,-8.0566 h -12.987 l -10.582,60.124 h 12.987 l 5.4111,-30.784 c 2.405,-12.506 11.784,-16.955 20.202,-16.354 l 2.5252,-14.069 c -7.3351,-0.2405 -14.069,2.2847 -18.999,9.1389 z"
           inkscape:connector-curvature="0" />
        <path
           style="fill:#ffffff"
           id="path5041"
           d="m -1287.8,197.92 h -13.708 c -3.3669,6.2529 -9.9806,9.8604 -17.556,9.8604 -10.822,0 -17.075,-8.2971 -15.272,-19.119 1.9239,-10.943 11.303,-18.638 22.005,-18.638 7.5756,0 12.746,3.7277 13.949,9.8604 h 13.588 c -0.6012,-12.987 -11.905,-22.607 -26.214,-22.607 -18.398,0 -33.309,12.506 -36.435,30.303 -3.1264,17.917 8.7781,32.948 26.695,32.948 15.031,0 27.898,-8.7781 32.948,-22.607 z"
           inkscape:connector-curvature="0" />
        <path
           style="fill:#ffffff"
           id="path5043"
           d="m -1235.3,158.84 -6.2529,35.714 c -2.2847,9.8604 -8.7781,13.829 -15.392,13.829 -6.2529,0 -10.221,-3.8479 -8.8984,-11.664 l 6.6136,-37.878 h -12.987 l -6.7339,38.72 c -2.5252,13.829 5.5315,22.967 16.835,22.967 7.0946,0 12.987,-2.405 17.316,-7.8161 l -1.0822,6.2529 h 12.987 l 10.582,-60.124 h -12.987 z"
           inkscape:connector-curvature="0" />
        <path
           style="fill:#ffffff"
           id="path5045"
           d="m -1167.2,177.35 c 2.2847,-13.227 -7.8162,-20.081 -19.841,-20.081 -11.784,0 -22.967,5.6517 -25.012,16.955 -4.0885,23.088 30.663,16.113 28.619,27.777 -0.8417,4.5694 -5.5314,6.8542 -11.784,6.8542 -6.3731,0 -10.462,-2.5252 -9.3793,-8.5376 h -12.746 c -2.2848,13.227 7.4553,20.202 20.803,20.202 13.227,0 23.929,-5.6517 25.974,-17.195 4.0884,-23.088 -30.663,-15.873 -28.499,-27.777 0.7215,-4.5694 5.5314,-6.6136 10.943,-6.6136 5.0504,0 9.1388,2.5252 8.1768,8.4174 h 12.746 z"
           inkscape:connector-curvature="0" />
        <path
           style="fill:#ffffff"
           id="path5047"
           d="m -1097,157.27 c -14.31,0 -25.132,7.9364 -27.417,21.164 h 12.746 c 0.962,-5.8922 6.2529,-9.0186 12.506,-9.0186 6.3731,0 10.822,3.1264 9.3794,11.664 l -1.443,8.0566 c -3.1265,-4.0884 -8.6579,-6.7339 -15.752,-6.7339 -10.582,0 -21.765,5.2909 -24.05,18.037 -2.2847,12.746 7.2149,20.081 18.278,20.081 7.0947,0 12.867,-2.1645 17.196,-6.3732 l -0.8417,4.8099 h 12.746 l 6.7339,-38.479 c 2.5252,-13.949 -7.2149,-23.208 -20.081,-23.208 z m -10.822,53.15 c -7.8161,0 -11.183,-4.0884 -10.341,-9.2591 0.962,-5.1707 5.5314,-8.6579 13.468,-8.6579 7.2149,0 12.386,3.4872 11.303,9.0186 -0.8417,5.1707 -6.7339,8.8984 -14.43,8.8984 z"
           inkscape:connector-curvature="0" />
        <path
           style="fill:#ffffff"
           id="path5049"
           d="m -1029.9,157.27 c -6.9744,0 -12.987,2.405 -17.797,7.9364 l 1.2025,-6.3732 h -12.987 l -10.582,60.124 h 12.987 l 6.2529,-35.714 c 2.2847,-10.101 8.8984,-13.949 15.512,-13.949 6.2529,0 10.221,3.7277 8.8984,11.664 l -6.7339,37.998 h 12.987 l 6.8542,-38.72 c 2.4049,-13.829 -5.291,-22.967 -16.594,-22.967 z"
           inkscape:connector-curvature="0" />
        <path
           style="fill:#ffffff"
           id="path5051"
           d="m -944.02,134.79 -6.0124,33.79 c -3.8479,-7.0946 -11.063,-11.303 -20.322,-11.303 -16.835,0 -30.904,12.386 -34.151,30.303 -3.1264,16.955 6.7339,32.948 24.771,32.948 9.3794,0 16.714,-3.2467 22.126,-8.6579 l -1.2025,7.0946 h 12.987 l 14.791,-84.174 h -12.987 z m -31.746,73.351 c -10.943,0 -17.676,-8.4174 -15.753,-19.6 2.1645,-12.265 12.145,-18.879 22.005,-18.879 9.6199,0 17.316,6.3732 16.234,17.556 l -0.72149,4.0884 c -2.6455,10.101 -11.664,16.835 -21.765,16.835 z"
           inkscape:connector-curvature="0" />
        <path
           style="fill:#ffffff"
           id="path5053"
           d="m -874.29,220.52 c 15.392,0 29.461,-7.3351 32.106,-22.847 3.0062,-16.714 -11.544,-22.607 -23.088,-27.176 -7.9364,-3.1264 -14.189,-6.3732 -12.867,-13.708 1.0822,-6.1327 7.0946,-10.101 14.67,-10.101 8.4174,0 13.107,4.2087 11.664,12.626 h 13.829 c 3.1264,-17.556 -9.9806,-26.094 -23.569,-26.094 -13.949,0 -27.657,6.9744 -30.423,22.366 -3.0062,17.436 10.702,23.088 22.246,27.537 8.0566,3.1265 15.031,6.3732 13.708,13.348 -1.0822,6.2529 -7.2149,10.582 -16.234,10.582 -10.341,0 -15.753,-4.5694 -14.069,-13.588 h -13.829 c -3.367,18.157 10.221,27.056 25.853,27.056 z"
           inkscape:connector-curvature="0" />
        <path
           style="fill:#ffffff"
           id="path5055"
           d="m -795.17,158.84 h -11.063 l 3.367,-19.24 h -12.987 l -3.367,19.24 h -11.063 l -2.1645,12.506 h 11.063 l -8.4174,47.618 h 12.987 l 8.4174,-47.618 h 11.063 l 2.1645,-12.506 z"
           inkscape:connector-curvature="0" />
        <path
           style="fill:#ffffff"
           id="path5057"
           d="m -773.87,166.89 1.443,-8.0566 h -12.987 l -10.582,60.124 h 12.987 l 5.4112,-30.784 c 2.405,-12.506 11.784,-16.955 20.202,-16.354 l 2.5252,-14.069 c -7.3351,-0.2405 -14.069,2.2847 -18.999,9.1389 z"
           inkscape:connector-curvature="0" />
        <path
           style="fill:#ffffff"
           id="path5059"
           d="m -720.66,157.27 c -18.638,0 -32.708,12.626 -35.834,30.423 -3.1264,18.037 8.2971,32.828 26.575,32.828 14.069,0 25.132,-7.0946 30.543,-18.638 l -13.348,0.12025 c -2.886,4.4492 -8.6579,7.3351 -15.392,7.3351 -9.2591,0 -15.512,-5.1707 -15.873,-14.911 h 34.631 12.746 c 0.60124,-1.6835 1.0822,-3.6074 1.443,-5.4112 3.0062,-17.316 -8.5376,-31.746 -25.493,-31.746 z m -21.645,26.455 c 3.2467,-9.0186 10.582,-14.67 20.683,-14.67 7.6959,0 14.31,4.4492 14.189,14.67 h -34.872 z"
           inkscape:connector-curvature="0" />
        <path
           style="fill:#ffffff"
           id="path5061"
           d="m -651.37,157.27 c -18.638,0 -32.708,12.626 -35.834,30.423 -3.1264,18.037 8.2971,32.828 26.575,32.828 14.069,0 25.132,-7.0946 30.543,-18.638 l -13.348,0.12025 c -2.886,4.4492 -8.6579,7.3351 -15.392,7.3351 -9.2591,0 -15.512,-5.1707 -15.873,-14.911 h 34.631 12.746 c 0.60124,-1.6835 1.0822,-3.6074 1.443,-5.4112 3.0062,-17.316 -8.5376,-31.746 -25.493,-31.746 z m -21.645,26.455 c 3.2467,-9.0186 10.582,-14.67 20.683,-14.67 7.6959,0 14.31,4.4492 14.189,14.67 h -34.872 z"
           inkscape:connector-curvature="0" />
        <path
           style="fill:#ffffff"
           id="path5063"
           d="m -580.51,158.84 h -11.063 l 3.3669,-19.24 h -12.987 l -3.367,19.24 h -11.063 l -2.1645,12.506 h 11.063 l -8.4174,47.618 h 12.987 l 8.4174,-47.618 h 11.063 l 2.1645,-12.506 z"
           inkscape:connector-curvature="0" />
        <path
           style="fill:#ffffff"
           id="path5065"
           d="m -524.82,220.52 c 15.392,0 29.461,-7.3351 32.106,-22.847 3.0062,-16.714 -11.544,-22.607 -23.088,-27.176 -7.9364,-3.1264 -14.189,-6.3732 -12.867,-13.708 1.0822,-6.1327 7.0946,-10.101 14.67,-10.101 8.4174,0 13.107,4.2087 11.664,12.626 h 13.829 c 3.1265,-17.556 -9.9806,-26.094 -23.569,-26.094 -13.949,0 -27.657,6.9744 -30.423,22.366 -3.0062,17.436 10.702,23.088 22.246,27.537 8.0566,3.1265 15.031,6.3732 13.708,13.348 -1.0822,6.2529 -7.2149,10.582 -16.234,10.582 -10.341,0 -15.753,-4.5694 -14.069,-13.588 h -13.829 c -3.367,18.157 10.221,27.056 25.853,27.056 z"
           inkscape:connector-curvature="0" />
        <path
           style="fill:#ffffff"
           id="path5067"
           d="m -445,157.27 c -7.0946,0 -13.107,2.5252 -17.917,8.0566 l 5.4112,-30.543 h -12.987 l -14.791,84.174 h 12.987 l 6.2529,-35.714 c 2.1645,-9.9806 8.8984,-13.949 15.512,-13.949 6.2529,0 10.221,3.9682 8.8984,11.664 l -6.7339,37.998 h 12.987 l 6.8542,-38.72 c 2.2847,-13.588 -5.4112,-22.967 -16.474,-22.967 z"
           inkscape:connector-curvature="0" />
        <path
           style="fill:#ffffff"
           id="path5069"
           d="m -392.41,220.52 c 16.835,0 32.587,-12.145 35.834,-30.423 3.1264,-18.157 -8.5376,-32.828 -26.334,-32.828 -17.797,0 -33.309,12.025 -36.676,30.062 -3.4872,18.398 8.1769,33.188 27.176,33.188 z m 0.96199,-12.626 c -9.8604,0 -17.195,-6.8542 -15.151,-18.999 2.1645,-12.145 12.025,-18.999 21.885,-18.999 9.7401,0 17.436,6.8542 15.272,18.759 -2.1645,12.386 -12.145,19.24 -22.005,19.24 z"
           inkscape:connector-curvature="0" />
        <path
           style="fill:#ffffff"
           id="path5071"
           d="m -280.77,158.84 -20.803,43.53 -6.2529,-43.53 h -11.424 l 2.6455,16.835 -13.949,27.777 -5.5314,-44.612 h -13.227 l 9.4996,60.124 h 1.443 11.303 l 13.227,-25.733 4.0884,25.733 h 0.2405 12.506 l 30.663,-60.124 h -14.43 z"
           inkscape:connector-curvature="0" />
      </g>
      <path
         id="rect4434"
         style="color:#000000;fill:#ffffff"
         d="m -1525.6,91.43 h 1284.7 v 18.12 h -1284.7 z"
         inkscape:connector-curvature="0" />
    </g>
  </g>
</svg>
