<?xml version="1.0" encoding="UTF-8" standalone="no"?>
<!-- Created with Inkscape (http://www.inkscape.org/) -->
<svg id="svg4396" xmlns:rdf="http://www.w3.org/1999/02/22-rdf-syntax-ns#" xmlns="http://www.w3.org/2000/svg" height="109.43mm" width="483.35mm" version="1.1" xmlns:cc="http://creativecommons.org/ns#" xmlns:dc="http://purl.org/dc/elements/1.1/" viewBox="0 0 1712.6403 387.75055">
 <g id="layer1" transform="translate(1953.5 167.23)">
  <path id="rect4416" style="color-rendering:auto;color:#000000;isolation:auto;mix-blend-mode:normal;shape-rendering:auto;solid-color:#000000;image-rendering:auto" d="m-1953.5-167.23h375.78v375.78h-375.78z"/>
  <g id="g4418" transform="translate(-1594.3 -2208.8)" fill="#fff">
   <g id="text4408" style="color-rendering:auto;text-decoration-color:#000000;color:#000000;isolation:auto;mix-blend-mode:normal;shape-rendering:auto;solid-color:#000000;block-progression:tb;text-decoration-line:none;text-decoration-style:solid;image-rendering:auto;white-space:normal;text-indent:0;text-transform:none">
    <path id="path5012" fill="#fff" d="m-262.23 2326.8h48.547l64.729-198.73h-42.585l-46.559 153.02-46.559-153.02h-42.301l64.729 198.73z"/>
   </g>
   <g id="text4412" style="color-rendering:auto;text-decoration-color:#000000;color:#000000;isolation:auto;mix-blend-mode:normal;shape-rendering:auto;solid-color:#000000;block-progression:tb;text-decoration-line:none;text-decoration-style:solid;image-rendering:auto;white-space:normal;text-indent:0;text-transform:none" transform="scale(-1)">
    <path id="path5015" fill="#fff" d="m80.342-2132.1h48.547l64.729-198.73h-42.585l-46.559 153.02-46.559-153.02h-42.301l64.729 198.73z"/>
   </g>
  </g>
  <g>
   <g id="text4424" style="color-rendering:auto;text-decoration-color:#000000;color:#000000;isolation:auto;mix-blend-mode:normal;shape-rendering:auto;solid-color:#000000;block-progression:tb;text-decoration-line:none;text-decoration-style:solid;image-rendering:auto;white-space:normal;text-indent:0;text-transform:none">
    <path id="path5018" d="m-1463.7 63.717h49.33l65.773-201.94h-43.272l-47.311 155.49-47.311-155.49h-42.984l65.773 201.94z"/>
    <path id="path5020" d="m-1242.6 67.756c58.273 0 105.01-46.157 105.01-105.01 0-59.138-46.734-105.01-105.01-105.01-58.273 0-104.72 45.868-104.72 105.01 0 58.85 46.445 105.01 104.72 105.01zm0-38.945c-36.637 0-65.196-27.406-65.196-66.062 0-38.945 28.56-66.35 65.196-66.35 36.637 0 65.196 27.406 65.196 66.35 0 38.656-28.559 66.062-65.196 66.062z"/>
    <path id="path5022" d="m-1109.3-138.22v201.94h39.81v-201.94h-39.81z"/>
    <path id="path5024" d="m-992.34 25.638v-163.86h-39.81v201.94h114.81v-38.079h-75.005z"/>
    <path id="path5026" d="m-769.75 63.717h43.272l-68.658-201.94h-49.33l-68.658 201.94h42.983l11.539-36.348h77.313l11.539 36.348zm-77.024-73.562 26.829-84.236 26.829 84.236h-53.657z"/>
    <path id="path5028" d="m-585.6 63.717h46.734l-62.312-76.736c22.213-10.674 37.791-33.175 37.791-58.273 0-36.925-30.002-66.927-67.216-66.927h-36.637-39.81v201.94h39.81v-70.101h24.521l57.119 70.101zm-81.64-164.72h36.637c15.001 0 27.406 12.982 27.406 29.713 0 16.732-12.405 30.002-27.406 30.002h-36.637v-59.715z"/>
    <path id="path5030" d="m-414.3-138.22h-48.753-88.275v38.079h48.465v163.86h39.81v-163.86h48.753v-38.079z"/>
    <path id="path5032" d="m-334.28 67.756c37.502 0 69.235-20.482 69.235-59.138 0-42.695-38.079-53.369-67.216-63.754-18.751-6.9235-32.598-13.559-32.598-28.271 0-11.828 9.5198-20.194 25.963-20.194 18.174 0 28.559 8.9429 28.559 26.54h39.522c0-44.714-32.887-65.196-68.081-65.196-33.464 0-65.485 20.194-65.485 58.85 0 42.695 35.483 54.234 64.331 64.619 19.328 6.635 35.483 12.982 35.483 27.406 0 11.539-9.5198 20.194-29.713 20.194-22.501 0-34.041-8.9429-34.041-27.406h-39.81c0 45.58 34.041 66.35 73.851 66.35z"/>
   </g>
   <g id="text4428">
    <path id="path5035" d="m-1464.9 220.52c20.081 0 37.758-12.265 45.213-30.423h-14.67c-5.2909 10.221-16.714 16.955-28.739 16.955-18.037 0-27.777-12.867-24.771-30.182 3.0062-17.316 17.075-30.182 35.353-30.182 12.386 0 21.043 6.7339 22.847 16.955h14.55c-1.2025-17.917-16.835-30.423-35.954-30.423-25.733 0-46.175 18.037-50.504 42.448-4.3289 24.41 11.303 44.853 36.676 44.853z"/>
    <path id="path5037" d="m-1402.6 149.22h12.987l2.5252-14.43h-12.987l-2.5252 14.43zm-12.265 69.744h12.987l10.582-60.124h-12.987l-10.582 60.124z"/>
    <path id="path5039" d="m-1364.8 166.89 1.443-8.0566h-12.987l-10.582 60.124h12.987l5.4111-30.784c2.405-12.506 11.784-16.955 20.202-16.354l2.5252-14.069c-7.3351-0.2405-14.069 2.2847-18.999 9.1389z"/>
    <path id="path5041" d="m-1287.8 197.92h-13.708c-3.3669 6.2529-9.9806 9.8604-17.556 9.8604-10.822 0-17.075-8.2971-15.272-19.119 1.9239-10.943 11.303-18.638 22.005-18.638 7.5756 0 12.746 3.7277 13.949 9.8604h13.588c-0.6012-12.987-11.905-22.607-26.214-22.607-18.398 0-33.309 12.506-36.435 30.303-3.1264 17.917 8.7781 32.948 26.695 32.948 15.031 0 27.898-8.7781 32.948-22.607z"/>
    <path id="path5043" d="m-1235.3 158.84-6.2529 35.714c-2.2847 9.8604-8.7781 13.829-15.392 13.829-6.2529 0-10.221-3.8479-8.8984-11.664l6.6136-37.878h-12.987l-6.7339 38.72c-2.5252 13.829 5.5315 22.967 16.835 22.967 7.0946 0 12.987-2.405 17.316-7.8161l-1.0822 6.2529h12.987l10.582-60.124h-12.987z"/>
    <path id="path5045" d="m-1167.2 177.35c2.2847-13.227-7.8162-20.081-19.841-20.081-11.784 0-22.967 5.6517-25.012 16.955-4.0885 23.088 30.663 16.113 28.619 27.777-0.8417 4.5694-5.5314 6.8542-11.784 6.8542-6.3731 0-10.462-2.5252-9.3793-8.5376h-12.746c-2.2848 13.227 7.4553 20.202 20.803 20.202 13.227 0 23.929-5.6517 25.974-17.195 4.0884-23.088-30.663-15.873-28.499-27.777 0.7215-4.5694 5.5314-6.6136 10.943-6.6136 5.0504 0 9.1388 2.5252 8.1768 8.4174h12.746z"/>
    <path id="path5047" d="m-1097 157.27c-14.31 0-25.132 7.9364-27.417 21.164h12.746c0.962-5.8922 6.2529-9.0186 12.506-9.0186 6.3731 0 10.822 3.1264 9.3794 11.664l-1.443 8.0566c-3.1265-4.0884-8.6579-6.7339-15.752-6.7339-10.582 0-21.765 5.2909-24.05 18.037-2.2847 12.746 7.2149 20.081 18.278 20.081 7.0947 0 12.867-2.1645 17.196-6.3732l-0.8417 4.8099h12.746l6.7339-38.479c2.5252-13.949-7.2149-23.208-20.081-23.208zm-10.822 53.15c-7.8161 0-11.183-4.0884-10.341-9.2591 0.962-5.1707 5.5314-8.6579 13.468-8.6579 7.2149 0 12.386 3.4872 11.303 9.0186-0.8417 5.1707-6.7339 8.8984-14.43 8.8984z"/>
    <path id="path5049" d="m-1029.9 157.27c-6.9744 0-12.987 2.405-17.797 7.9364l1.2025-6.3732h-12.987l-10.582 60.124h12.987l6.2529-35.714c2.2847-10.101 8.8984-13.949 15.512-13.949 6.2529 0 10.221 3.7277 8.8984 11.664l-6.7339 37.998h12.987l6.8542-38.72c2.4049-13.829-5.291-22.967-16.594-22.967z"/>
    <path id="path5051" d="m-944.02 134.79-6.0124 33.79c-3.8479-7.0946-11.063-11.303-20.322-11.303-16.835 0-30.904 12.386-34.151 30.303-3.1264 16.955 6.7339 32.948 24.771 32.948 9.3794 0 16.714-3.2467 22.126-8.6579l-1.2025 7.0946h12.987l14.791-84.174h-12.987zm-31.746 73.351c-10.943 0-17.676-8.4174-15.753-19.6 2.1645-12.265 12.145-18.879 22.005-18.879 9.6199 0 17.316 6.3732 16.234 17.556l-0.72149 4.0884c-2.6455 10.101-11.664 16.835-21.765 16.835z"/>
    <path id="path5053" d="m-874.29 220.52c15.392 0 29.461-7.3351 32.106-22.847 3.0062-16.714-11.544-22.607-23.088-27.176-7.9364-3.1264-14.189-6.3732-12.867-13.708 1.0822-6.1327 7.0946-10.101 14.67-10.101 8.4174 0 13.107 4.2087 11.664 12.626h13.829c3.1264-17.556-9.9806-26.094-23.569-26.094-13.949 0-27.657 6.9744-30.423 22.366-3.0062 17.436 10.702 23.088 22.246 27.537 8.0566 3.1265 15.031 6.3732 13.708 13.348-1.0822 6.2529-7.2149 10.582-16.234 10.582-10.341 0-15.753-4.5694-14.069-13.588h-13.829c-3.367 18.157 10.221 27.056 25.853 27.056z"/>
    <path id="path5055" d="m-795.17 158.84h-11.063l3.367-19.24h-12.987l-3.367 19.24h-11.063l-2.1645 12.506h11.063l-8.4174 47.618h12.987l8.4174-47.618h11.063l2.1645-12.506z"/>
    <path id="path5057" d="m-773.87 166.89 1.443-8.0566h-12.987l-10.582 60.124h12.987l5.4112-30.784c2.405-12.506 11.784-16.955 20.202-16.354l2.5252-14.069c-7.3351-0.2405-14.069 2.2847-18.999 9.1389z"/>
    <path id="path5059" d="m-720.66 157.27c-18.638 0-32.708 12.626-35.834 30.423-3.1264 18.037 8.2971 32.828 26.575 32.828 14.069 0 25.132-7.0946 30.543-18.638l-13.348 0.12025c-2.886 4.4492-8.6579 7.3351-15.392 7.3351-9.2591 0-15.512-5.1707-15.873-14.911h34.631 12.746c0.60124-1.6835 1.0822-3.6074 1.443-5.4112 3.0062-17.316-8.5376-31.746-25.493-31.746zm-21.645 26.455c3.2467-9.0186 10.582-14.67 20.683-14.67 7.6959 0 14.31 4.4492 14.189 14.67h-34.872z"/>
    <path id="path5061" d="m-651.37 157.27c-18.638 0-32.708 12.626-35.834 30.423-3.1264 18.037 8.2971 32.828 26.575 32.828 14.069 0 25.132-7.0946 30.543-18.638l-13.348 0.12025c-2.886 4.4492-8.6579 7.3351-15.392 7.3351-9.2591 0-15.512-5.1707-15.873-14.911h34.631 12.746c0.60124-1.6835 1.0822-3.6074 1.443-5.4112 3.0062-17.316-8.5376-31.746-25.493-31.746zm-21.645 26.455c3.2467-9.0186 10.582-14.67 20.683-14.67 7.6959 0 14.31 4.4492 14.189 14.67h-34.872z"/>
    <path id="path5063" d="m-580.51 158.84h-11.063l3.3669-19.24h-12.987l-3.367 19.24h-11.063l-2.1645 12.506h11.063l-8.4174 47.618h12.987l8.4174-47.618h11.063l2.1645-12.506z"/>
    <path id="path5065" d="m-524.82 220.52c15.392 0 29.461-7.3351 32.106-22.847 3.0062-16.714-11.544-22.607-23.088-27.176-7.9364-3.1264-14.189-6.3732-12.867-13.708 1.0822-6.1327 7.0946-10.101 14.67-10.101 8.4174 0 13.107 4.2087 11.664 12.626h13.829c3.1265-17.556-9.9806-26.094-23.569-26.094-13.949 0-27.657 6.9744-30.423 22.366-3.0062 17.436 10.702 23.088 22.246 27.537 8.0566 3.1265 15.031 6.3732 13.708 13.348-1.0822 6.2529-7.2149 10.582-16.234 10.582-10.341 0-15.753-4.5694-14.069-13.588h-13.829c-3.367 18.157 10.221 27.056 25.853 27.056z"/>
    <path id="path5067" d="m-445 157.27c-7.0946 0-13.107 2.5252-17.917 8.0566l5.4112-30.543h-12.987l-14.791 84.174h12.987l6.2529-35.714c2.1645-9.9806 8.8984-13.949 15.512-13.949 6.2529 0 10.221 3.9682 8.8984 11.664l-6.7339 37.998h12.987l6.8542-38.72c2.2847-13.588-5.4112-22.967-16.474-22.967z"/>
    <path id="path5069" d="m-392.41 220.52c16.835 0 32.587-12.145 35.834-30.423 3.1264-18.157-8.5376-32.828-26.334-32.828-17.797 0-33.309 12.025-36.676 30.062-3.4872 18.398 8.1769 33.188 27.176 33.188zm0.96199-12.626c-9.8604 0-17.195-6.8542-15.151-18.999 2.1645-12.145 12.025-18.999 21.885-18.999 9.7401 0 17.436 6.8542 15.272 18.759-2.1645 12.386-12.145 19.24-22.005 19.24z"/>
    <path id="path5071" d="m-280.77 158.84-20.803 43.53-6.2529-43.53h-11.424l2.6455 16.835-13.949 27.777-5.5314-44.612h-13.227l9.4996 60.124h1.443 11.303l13.227-25.733 4.0884 25.733h0.2405 12.506l30.663-60.124h-14.43z"/>
   </g>
   <path id="rect4434" style="color-rendering:auto;color:#000000;isolation:auto;mix-blend-mode:normal;shape-rendering:auto;solid-color:#000000;image-rendering:auto" d="m-1525.6 91.43h1284.7v18.12h-1284.7z"/>
  </g>
 </g>
</svg>
